<?xml version="1.0" encoding="iso-8859-1"?>
<!-- Generator: Adobe Illustrator 19.0.0, SVG Export Plug-In . SVG Version: 6.00 Build 0)  -->
<svg version="1.1" id="Capa_1" xmlns="http://www.w3.org/2000/svg" xmlns:xlink="http://www.w3.org/1999/xlink" x="0px" y="0px"
	 viewBox="0 0 512 512" style="enable-background:new 0 0 512 512;" xml:space="preserve">
<g>
	<g>
		<path d="M425.167,240.958c-2.938-14.313-9.979-27.375-20.583-37.969L212.792,21.865C198.688,7.76,179.938,0,160,0
			c-41.167,0-74.667,33.5-74.667,74.667c0,19.958,7.771,38.708,22.083,53.01L243.292,256L107.208,384.531
			c-14.104,14.104-21.875,32.854-21.875,52.802C85.333,478.5,118.833,512,160,512c19.896,0,38.583-7.729,52.688-21.76
			l192.104-181.438c10.396-10.385,17.438-23.438,20.375-37.76c1-4.885,1.5-9.948,1.5-15.042
			C426.667,251.031,426.167,245.99,425.167,240.958z"/>
	</g>
</g>
<g>
</g>
<g>
</g>
<g>
</g>
<g>
</g>
<g>
</g>
<g>
</g>
<g>
</g>
<g>
</g>
<g>
</g>
<g>
</g>
<g>
</g>
<g>
</g>
<g>
</g>
<g>
</g>
<g>
</g>
</svg>
